# xmcd CD database file
#
# Track frame offsets:
#	150
#	7725
#	20622
#	35312
#	60577
#	83220
#	96470
#	116842
#	120110
#	147202
#
# Disc length: 2208 seconds
#
# Revision: 1
# Processed by: cddbd v1.5.2PL0 Copyright (c) Steve Scherf et al.
# Submitted via: CDex 1.51
#
DISCID=75089e0a
DTITLE=Jesse Ed Davis - Keep Me Comin'
DYEAR=1973
DGENRE=Blues
TTITLE0=Big Dipper
TTITLE1=She's A Pain
TTITLE2=Where I Am Now (When I Need Me)
TTITLE3=Natural Anthem
TTITLE4=Who Pulled The Plug?
TTITLE5=Ching, Ching, China Boy
TTITLE6=Bacon Fat
TTITLE7=No Diga Mas
TTITLE8=6:00 Bugalu
TTITLE9=Keep Me Comin'
EXTD=YEAR: 1973
EXTT0=
EXTT1=
EXTT2=
EXTT3=
EXTT4=
EXTT5=
EXTT6=
EXTT7=
EXTT8=
EXTT9=
PLAYORDER=
